<?xml version="1.0" encoding="UTF-8"?>
<!DOCTYPE svg PUBLIC "-//W3C//DTD SVG 1.1//EN" "http://www.w3.org/Graphics/SVG/1.1/DTD/svg11.dtd">
<svg xmlns="http://www.w3.org/2000/svg" version="1.1" width="8000px" height="8000px" style="shape-rendering:geometricPrecision; text-rendering:geometricPrecision; image-rendering:optimizeQuality; fill-rule:evenodd; clip-rule:evenodd" xmlns:xlink="http://www.w3.org/1999/xlink">
<g><path style="opacity:0.999" fill="#65faf0" d="M 4024.5,213.5 C 4057.96,212.168 4080.13,227.168 4091,258.5C 4215.35,732.882 4339.85,1207.22 4464.5,1681.5C 4814.32,1750.97 5131.32,1891.63 5415.5,2103.5C 5587.8,2065.54 5760.3,2028.54 5933,1992.5C 5959.63,1994.13 5978.29,2007.13 5989,2031.5C 5991.94,2044.3 5995.27,2056.97 5999,2069.5C 5999.61,2075.87 5999.27,2082.21 5998,2088.5C 5961.73,2248.09 5925.23,2407.59 5888.5,2567C 6102.43,2848.78 6247.77,3163.62 6324.5,3511.5C 6327.93,3513.48 6331.6,3514.98 6335.5,3516C 6802.55,3657.84 7269.55,3799.84 7736.5,3942C 7766.03,3955.22 7778.87,3978.05 7775,4010.5C 7770.12,4031.38 7757.95,4046.21 7738.5,4055C 7269.72,4199.37 6800.89,4343.54 6332,4487.5C 6277.54,4747.69 6183.54,4992.36 6050,5221.5C 6004.61,5297.7 5955.11,5371.03 5901.5,5441.5C 5938.73,5593.81 5975.9,5746.14 6013,5898.5C 6032.6,5922.97 6034.27,5948.64 6018,5975.5C 6003.34,5993.91 5984.17,6002.07 5960.5,6000C 5788.15,5969.11 5615.81,5938.11 5443.5,5907C 5439.53,5906 5435.53,5905.67 5431.5,5906C 5139.47,6124.3 4813.8,6270.13 4454.5,6343.5C 4328.72,6785.26 4203.56,7227.26 4079,7669.5C 4073.17,7687.66 4068.17,7705.99 4064,7724.5C 4048.97,7757.1 4023.81,7769.6 3988.5,7762C 3965.88,7754.38 3952.05,7738.88 3947,7715.5C 3939.67,7708.84 3934.34,7700.84 3931,7691.5C 3792.03,7238.91 3652.86,6786.41 3513.5,6334C 3155.43,6257.84 2833.59,6107.34 2548,5882.5C 2379.55,5930.4 2211.05,5978.24 2042.5,6026C 2029.03,6028.19 2016.03,6026.52 2003.5,6021C 1994.93,6015.77 1986.93,6009.77 1979.5,6003C 1962.15,5986.79 1955.65,5966.96 1960,5943.5C 2006.07,5768.47 2052.23,5593.47 2098.5,5418.5C 1968.96,5240.48 1864.46,5047.81 1785,4840.5C 1744.92,4734.51 1712.75,4626.18 1688.5,4515.5C 1233.82,4365.44 779.154,4215.27 324.5,4065C 293.478,4064.61 272.312,4050.11 261,4021.5C 251.514,3993.28 258.014,3969.44 280.5,3950C 295.039,3940.37 311.039,3936.37 328.5,3938C 771.106,3802.8 1213.77,3667.8 1656.5,3533C 1665.94,3530.41 1675.11,3527.24 1684,3523.5C 1739.57,3263.75 1834.57,3019.75 1969,2791.5C 2010.87,2722.39 2055.71,2655.39 2103.5,2590.5C 2057,2415.83 2010.5,2241.17 1964,2066.5C 1957.65,2050.26 1953.82,2033.43 1952.5,2016C 1956.84,1976.66 1978.84,1956.33 2018.5,1955C 2030.32,1951.23 2042.32,1950.56 2054.5,1953C 2222.09,2013.64 2389.59,2074.47 2557,2135.5C 2854.13,1910.4 3186.63,1761.07 3554.5,1687.5C 3686.17,1214.48 3818.01,741.481 3950,268.5C 3957.25,243.957 3973.42,229.123 3998.5,224C 4006.46,218.515 4015.12,215.015 4024.5,213.5 Z M 4066.5,644.5 C 4155.71,982.818 4244.71,1321.32 4333.5,1660C 4333.17,1660.5 4332.83,1661 4332.5,1661.5C 4245.26,1649.48 4157.59,1642.82 4069.5,1641.5C 4068.35,1309.17 4067.35,976.834 4066.5,644.5 Z M 3970.5,1888.5 C 4409.8,1883.57 4812.14,2001.74 5177.5,2243C 5256.54,2295.63 5331.71,2353.46 5403,2416.5C 5305,2777.15 5206.67,3137.82 5108,3498.5C 5040.08,3180.22 4972.41,2861.89 4905,2543.5C 4899.67,2524.16 4890.67,2506.83 4878,2491.5C 4870.5,2484 4863,2476.5 4855.5,2469C 4817.12,2438.99 4774.79,2431.99 4728.5,2448C 4696.54,2460.96 4673.37,2483.13 4659,2514.5C 4656.27,2521.36 4653.93,2528.36 4652,2535.5C 4567,2855.17 4482,3174.83 4397,3494.5C 4295.54,3143.77 4193.87,2793.11 4092,2442.5C 4069.55,2391.59 4030.38,2364.92 3974.5,2362.5C 3919.54,2365.33 3880.7,2391.67 3858,2441.5C 3770.96,2778.32 3683.29,3114.99 3595,3451.5C 3516.51,3131.2 3438.18,2810.87 3360,2490.5C 3348.6,2440.44 3318.44,2407.6 3269.5,2392C 3254.66,2389.81 3240,2386.81 3225.5,2383C 3168.4,2376.8 3124.9,2397.97 3095,2446.5C 3090.35,2455.45 3086.68,2464.78 3084,2474.5C 2995.82,2832.2 2907.49,3189.87 2819,3547.5C 2732.88,3214.68 2647.21,2881.68 2562,2548.5C 2558.87,2536.77 2555.54,2525.11 2552,2513.5C 2547.53,2502.91 2542.86,2492.57 2538,2482.5C 2800.51,2229.53 3109.01,2054.69 3463.5,1958C 3629.9,1914.91 3798.9,1891.74 3970.5,1888.5 Z M 2209.5,2138.5 C 2288.78,2166.37 2367.78,2195.04 2446.5,2224.5C 2419.56,2248.1 2392.89,2272.1 2366.5,2296.5C 2313.45,2244.45 2261.12,2191.78 2209.5,2138.5 Z M 5836.5,2249.5 C 5822.15,2315.74 5806.99,2381.74 5791,2447.5C 5767.72,2421.05 5743.89,2395.05 5719.5,2369.5C 5758.55,2329.45 5797.55,2289.45 5836.5,2249.5 Z M 5639.5,2659.5 C 5859.08,2922.01 6006.58,3221.68 6082,3558.5C 6130.58,3788.61 6142.24,4020.61 6117,4254.5C 6079.36,4577.13 5973.36,4874.8 5799,5147.5C 5576.75,5491.09 5281.92,5752.59 4914.5,5932C 4854.14,5960.56 4792.64,5986.4 4730,6009.5C 4729.5,6009.17 4729,6008.83 4728.5,6008.5C 4769.98,5853.93 4811.14,5699.26 4852,5544.5C 5114.61,4582.84 5377.11,3621.18 5639.5,2659.5 Z M 2308.5,2740.5 C 2309.12,2740.61 2309.62,2740.94 2310,2741.5C 2320.33,2781.5 2330.67,2821.5 2341,2861.5C 2604.86,3889.59 2869.02,4917.59 3133.5,5945.5C 3133.17,5945.83 3132.83,5946.17 3132.5,5946.5C 2772.23,5779.08 2478.73,5532.08 2252,5205.5C 1984.89,4811.51 1862.89,4375.85 1886,3898.5C 1904.09,3557.28 1999.42,3239.61 2172,2945.5C 2214.05,2874.7 2259.55,2806.37 2308.5,2740.5 Z M 3981.5,2964.5 C 4082.29,3310.96 4182.79,3657.63 4283,4004.5C 4294.91,4047.41 4321.75,4076.58 4363.5,4092C 4419.93,4108.07 4467.1,4093.91 4505,4049.5C 4522.81,4024.06 4531.81,3995.73 4532,3964.5C 4609.33,3673.83 4686.67,3383.17 4764,3092.5C 4828.64,3393.74 4892.98,3695.08 4957,3996.5C 4959.08,4003.73 4961.74,4010.73 4965,4017.5C 4965.67,4019.17 4965.67,4020.83 4965,4022.5C 4827.16,4528.21 4689.16,5033.88 4551,5539.5C 4422.41,5042.72 4294.41,4545.72 4167,4048.5C 4152.44,3988.28 4115.28,3950.11 4055.5,3934C 4032.64,3929.52 4009.64,3928.52 3986.5,3931C 3959.34,3936.33 3936.18,3948.83 3917,3968.5C 3905.23,3982.94 3894.23,3997.94 3884,4013.5C 3881,4020.17 3878,4026.83 3875,4033.5C 3708.87,4546.23 3542.53,5058.9 3376,5571.5C 3233.73,5064.57 3091.23,4557.74 2948.5,4051C 2953.68,4043.14 2957.51,4034.64 2960,4025.5C 3046.03,3675.7 3132.53,3326.03 3219.5,2976.5C 3303.31,3316.41 3386.81,3656.41 3470,3996.5C 3494.31,4061.46 3541.15,4091.63 3610.5,4087C 3665.17,4076.33 3700.01,4044.16 3715,3990.5C 3804.15,3648.56 3892.98,3306.56 3981.5,2964.5 Z M 1657.5,3658.5 C 1658.24,3658.37 1658.91,3658.54 1659.5,3659C 1644.03,3758.2 1635.19,3858.03 1633,3958.5C 1623.93,3953.11 1614.1,3950.27 1603.5,3950C 1313.48,3947.57 1023.48,3944.57 733.5,3941C 1041.7,3847.1 1349.7,3752.93 1657.5,3658.5 Z M 6774.5,4058.5 C 6954.5,4058.33 7134.5,4058.5 7314.5,4059C 6994.9,4156.94 6675.4,4255.11 6356,4353.5C 6363.05,4297.68 6368.72,4241.68 6373,4185.5C 6375.86,4143.54 6377.69,4101.54 6378.5,4059.5C 6510.67,4059.83 6642.67,4059.5 6774.5,4058.5 Z M 4002.5,4583.5 C 4133.2,5089.29 4263.53,5595.29 4393.5,6101.5C 4219.31,6131.44 4043.98,6141.61 3867.5,6132C 3755.6,6125.1 3645.1,6108.93 3536,6083.5C 3535.33,6082.17 3535.33,6080.83 3536,6079.5C 3606,5844.83 3676,5610.17 3746,5375.5C 3832.01,5111.64 3917.51,4847.64 4002.5,4583.5 Z M 2192.5,5537.5 C 2216.08,5565.08 2240.08,5592.42 2264.5,5619.5C 2219.19,5674.65 2173.69,5729.65 2128,5784.5C 2149.01,5702.11 2170.51,5619.78 2192.5,5537.5 Z M 5649.5,5721.5 C 5651.72,5722.2 5653.55,5723.54 5655,5725.5C 5689.73,5767.23 5727.57,5806.07 5768.5,5842C 5698.7,5830.09 5629.03,5817.42 5559.5,5804C 5590.3,5777.37 5620.3,5749.87 5649.5,5721.5 Z M 3648.5,6358.5 C 3744.07,6371.76 3840.07,6380.1 3936.5,6383.5C 3939.25,6694.83 3941.42,7006.16 3943,7317.5C 3844.52,6997.91 3746.36,6678.24 3648.5,6358.5 Z"/></g>
</svg>
