<?xml version="1.0" encoding="UTF-8"?>
<!DOCTYPE svg PUBLIC "-//W3C//DTD SVG 1.1//EN" "http://www.w3.org/Graphics/SVG/1.1/DTD/svg11.dtd">
<svg xmlns="http://www.w3.org/2000/svg" version="1.1" width="5000px" height="5000px" style="shape-rendering:geometricPrecision; text-rendering:geometricPrecision; image-rendering:optimizeQuality; fill-rule:evenodd; clip-rule:evenodd" xmlns:xlink="http://www.w3.org/1999/xlink">
<g><path style="opacity:0.997" fill="#65faf0" d="M 2462.5,733.5 C 2837.49,725.149 3183.16,820.649 3499.5,1020C 3839.81,1241.35 4082.65,1541.85 4228,1921.5C 4340.69,2230.04 4370.02,2546.37 4316,2870.5C 4255.27,3209.57 4112.61,3507.9 3888,3765.5C 3645.14,4038.78 3346.64,4224.61 2992.5,4323C 2674.83,4406.33 2357.17,4406.33 2039.5,4323C 1680.03,4222.95 1378.19,4033.12 1134,3753.5C 880.017,3456.56 734.351,3112.23 697,2720.5C 666.599,2352.47 738.932,2006.14 914,1681.5C 1082,1379.5 1315.83,1142.34 1615.5,970C 1878.46,822.186 2160.79,743.352 2462.5,733.5 Z M 2467.5,854.5 C 2826.34,847.2 3155.68,941.033 3455.5,1136C 3742.85,1328.68 3954.35,1584.18 4090,1902.5C 4199.15,2167.57 4240.15,2442.9 4213,2728.5C 4175.03,3082.74 4042.03,3395.07 3814,3665.5C 3612.53,3899.53 3365.87,4068.19 3074,4171.5C 3065.96,4165.13 3058.96,4157.79 3053,4149.5C 3035.25,4125 3022.58,4098 3015,4068.5C 3008.38,4039.77 3003.38,4010.77 3000,3981.5C 2999.21,3967.34 2998.71,3953.18 2998.5,3939C 2999.32,3900.12 3001.15,3861.29 3004,3822.5C 3004.3,3770.16 3005.14,3717.82 3006.5,3665.5C 3008.41,3580.15 2997.57,3496.48 2974,3414.5C 2963.53,3384.76 2952.86,3355.09 2942,3325.5C 2938.12,3314.57 2933.28,3304.07 2927.5,3294C 2982.46,3287.4 3037.12,3278.4 3091.5,3267C 3133.9,3254.14 3175.23,3238.47 3215.5,3220C 3246.83,3204.67 3278.17,3189.33 3309.5,3174C 3342.4,3154.11 3372.73,3130.78 3400.5,3104C 3446.78,3060.74 3488.28,3013.57 3525,2962.5C 3536.5,2944.83 3547.5,2926.83 3558,2908.5C 3573.39,2876.71 3589.06,2845.04 3605,2813.5C 3639.44,2737.09 3660.44,2657.09 3668,2573.5C 3671.82,2477.24 3668.48,2381.24 3658,2285.5C 3654.28,2262.88 3649.28,2240.55 3643,2218.5C 3631.59,2186.6 3619.59,2154.93 3607,2123.5C 3595.91,2100.98 3582.58,2079.98 3567,2060.5C 3544.48,2030.98 3520.64,2002.48 3495.5,1975C 3486.64,1967.63 3477.97,1960.13 3469.5,1952.5C 3476.54,1889.03 3479.04,1825.36 3477,1761.5C 3473.37,1730.87 3470.04,1700.2 3467,1669.5C 3459.38,1608.34 3443.05,1549.67 3418,1493.5C 3398.69,1467.4 3373.53,1459.57 3342.5,1470C 3336.29,1472.88 3330.63,1476.55 3325.5,1481C 3300.37,1485.12 3275.7,1491.12 3251.5,1499C 3174.08,1524.14 3099.08,1555.14 3026.5,1592C 3004.65,1605.43 2982.32,1618.09 2959.5,1630C 2948.06,1637.11 2936.89,1644.61 2926,1652.5C 2886.2,1634.12 2844.7,1620.96 2801.5,1613C 2742.71,1601.48 2683.71,1591.15 2624.5,1582C 2542.64,1572.34 2460.64,1571 2378.5,1578C 2315.29,1580.25 2252.62,1587.25 2190.5,1599C 2154.12,1606.4 2119.12,1617.9 2085.5,1633.5C 2015.04,1577.76 1936.37,1536.93 1849.5,1511C 1777.13,1481.32 1702.47,1459.32 1625.5,1445C 1593.29,1441.85 1570.79,1455.01 1558,1484.5C 1554.7,1495.31 1553.7,1506.31 1555,1517.5C 1532.97,1580.66 1520.31,1645.66 1517,1712.5C 1512.45,1777.91 1513.45,1843.24 1520,1908.5C 1522.92,1929.5 1526.75,1950.34 1531.5,1971C 1523.72,1981.11 1515.56,1990.95 1507,2000.5C 1486.91,2029.67 1466.58,2058.67 1446,2087.5C 1430.81,2114.22 1417.47,2141.89 1406,2170.5C 1394.59,2203.06 1382.59,2235.4 1370,2267.5C 1355.97,2308.03 1348.97,2349.69 1349,2392.5C 1341.54,2438.89 1337.87,2485.55 1338,2532.5C 1345.14,2607.36 1357.48,2681.36 1375,2754.5C 1393.8,2812.56 1417.46,2868.56 1446,2922.5C 1464.1,2953.25 1483.76,2982.92 1505,3011.5C 1532.11,3044.51 1560.27,3076.68 1589.5,3108C 1608.76,3125.95 1628.76,3142.95 1649.5,3159C 1672.17,3174.33 1694.83,3189.67 1717.5,3205C 1763.51,3232.79 1812.18,3254.79 1863.5,3271C 1915.28,3287.03 1967.61,3301.03 2020.5,3313C 2036.44,3316.04 2052.44,3318.71 2068.5,3321C 2064.04,3327.12 2059.21,3332.96 2054,3338.5C 2036.44,3365.07 2019.27,3391.9 2002.5,3419C 1988.46,3421.12 1974.46,3423.45 1960.5,3426C 1940.33,3427.26 1920.16,3428.43 1900,3429.5C 1842.42,3423.42 1789.92,3403.92 1742.5,3371C 1725.8,3355.96 1708.8,3341.29 1691.5,3327C 1679.8,3313.63 1667.13,3301.3 1653.5,3290C 1644.33,3280.83 1635.17,3271.67 1626,3262.5C 1601.94,3234.1 1576.77,3206.6 1550.5,3180C 1539.37,3169.2 1527.37,3159.53 1514.5,3151C 1447.04,3108.52 1373.37,3087.52 1293.5,3088C 1280.96,3090.48 1268.29,3091.82 1255.5,3092C 1241.91,3093.75 1229.25,3098.08 1217.5,3105C 1208.72,3112.44 1199.39,3119.11 1189.5,3125C 1176.05,3137.38 1166.22,3152.21 1160,3169.5C 1155.08,3183.85 1151.41,3198.52 1149,3213.5C 1146,3235.85 1151,3256.19 1164,3274.5C 1171.46,3283.63 1179.3,3292.46 1187.5,3301C 1203.5,3314.33 1219.5,3327.67 1235.5,3341C 1270.87,3362.03 1303.71,3386.53 1334,3414.5C 1355.23,3442.63 1375.23,3471.63 1394,3501.5C 1412.16,3542.16 1433.16,3581.16 1457,3618.5C 1467.61,3633.38 1478.94,3647.71 1491,3661.5C 1508.2,3679.03 1525.7,3696.2 1543.5,3713C 1584.02,3749.28 1630.02,3776.95 1681.5,3796C 1724.43,3810.98 1768.09,3823.32 1812.5,3833C 1847.65,3839.45 1882.98,3840.78 1918.5,3837C 1950.03,3833.77 1981.36,3829.27 2012.5,3823.5C 2012.91,3846.41 2010.74,3869.08 2006,3891.5C 1997.44,3939.06 1985.44,3985.73 1970,4031.5C 1961.81,4052.88 1952.81,4073.88 1943,4094.5C 1933,4108.5 1923,4122.5 1913,4136.5C 1908.87,4141.13 1904.54,4145.47 1900,4149.5C 1577.9,4022.04 1316.9,3817.04 1117,3534.5C 915.231,3241.82 813.398,2916.98 811.5,2560C 814.096,2167.18 934.929,1816.34 1174,1507.5C 1397.34,1226.33 1681.18,1032.5 2025.5,926C 2169.9,883.211 2317.23,859.377 2467.5,854.5 Z M 1662.5,1577.5 C 1690.98,1583.94 1718.98,1592.1 1746.5,1602C 1783.79,1616.32 1821.46,1629.65 1859.5,1642C 1913.83,1664.07 1964,1692.9 2010,1728.5C 2026.16,1760.66 2051.99,1773.16 2087.5,1766C 2113.7,1753.23 2140.37,1741.57 2167.5,1731C 2211.05,1716.69 2255.72,1708.02 2301.5,1705C 2372.7,1698.52 2444.03,1695.19 2515.5,1695C 2555.74,1696.07 2595.74,1699.74 2635.5,1706C 2688.55,1715.41 2741.55,1725.08 2794.5,1735C 2828.64,1743.49 2861.64,1755.16 2893.5,1770C 2915.96,1788.77 2940.3,1791.43 2966.5,1778C 2975.15,1771.35 2983.15,1764.01 2990.5,1756C 2998.17,1750.33 3005.83,1744.67 3013.5,1739C 3048.86,1718.32 3084.86,1698.65 3121.5,1680C 3181.28,1652.45 3242.61,1628.78 3305.5,1609C 3313.75,1606.72 3322.08,1604.88 3330.5,1603.5C 3336.24,1627.69 3341.4,1652.02 3346,1676.5C 3349.76,1712.68 3353.59,1748.85 3357.5,1785C 3357.21,1834.93 3354.71,1884.77 3350,1934.5C 3347.28,1947.09 3344.95,1959.76 3343,1972.5C 3340.92,1987.11 3343.59,2000.78 3351,2013.5C 3356.33,2020.17 3361.67,2026.83 3367,2033.5C 3375.9,2043.2 3386.74,2049.7 3399.5,2053C 3403.5,2056.33 3407.5,2059.67 3411.5,2063C 3434.09,2088.92 3455.92,2115.42 3477,2142.5C 3485,2153.16 3492,2164.5 3498,2176.5C 3509.46,2205.54 3520.12,2234.87 3530,2264.5C 3538.59,2297.95 3543.26,2331.95 3544,2366.5C 3548.82,2434.11 3549.82,2501.77 3547,2569.5C 3540.74,2631.87 3525.41,2691.87 3501,2749.5C 3481.85,2789.14 3462.18,2828.48 3442,2867.5C 3392.91,2944.4 3331.41,3009.9 3257.5,3064C 3205.43,3091.37 3152.09,3116.04 3097.5,3138C 3086.64,3142.07 3075.64,3145.73 3064.5,3149C 3013.59,3159.82 2962.26,3167.82 2910.5,3173C 2885.48,3173.21 2860.48,3172.54 2835.5,3171C 2804.05,3157.99 2777.55,3164.49 2756,3190.5C 2741.44,3215.26 2742.1,3239.6 2758,3263.5C 2762.01,3267.68 2766.18,3271.68 2770.5,3275.5C 2785.09,3297.67 2799.92,3319.67 2815,3341.5C 2818.84,3347.18 2822.17,3353.18 2825,3359.5C 2836.2,3389.42 2847.2,3419.42 2858,3449.5C 2869.13,3487.47 2876.79,3526.14 2881,3565.5C 2886.14,3620.77 2887.14,3676.11 2884,3731.5C 2883.67,3760.83 2883.33,3790.17 2883,3819.5C 2880.02,3860.11 2878.19,3900.78 2877.5,3941.5C 2877.19,3973.39 2879.69,4005.06 2885,4036.5C 2889.85,4063.76 2895.85,4090.76 2903,4117.5C 2912.89,4150.55 2927.72,4181.05 2947.5,4209C 2719.99,4268.04 2489.99,4280.04 2257.5,4245C 2178.27,4232.86 2100.27,4215.36 2023.5,4192.5C 2023.35,4191.45 2023.52,4190.45 2024,4189.5C 2035.12,4174.38 2045.45,4158.71 2055,4142.5C 2086.36,4074.07 2108.7,4002.74 2122,3928.5C 2126.31,3908.32 2129.64,3887.99 2132,3867.5C 2132.99,3830.96 2134.82,3794.46 2137.5,3758C 2137.98,3738.13 2132.82,3719.96 2122,3703.5C 2102.62,3682.26 2079.12,3675.43 2051.5,3683C 2041.86,3687.15 2032.52,3691.82 2023.5,3697C 1975.49,3708.59 1926.82,3715.75 1877.5,3718.5C 1856.86,3717.84 1836.53,3715 1816.5,3710C 1780.46,3701.21 1745.13,3690.21 1710.5,3677C 1680.95,3665.06 1654.28,3648.73 1630.5,3628C 1615.67,3613.83 1600.83,3599.67 1586,3585.5C 1566.39,3564.28 1549.72,3540.95 1536,3515.5C 1521.43,3488.1 1507.43,3460.43 1494,3432.5C 1482.17,3415.51 1470.84,3398.18 1460,3380.5C 1449,3365.83 1438,3351.17 1427,3336.5C 1390.39,3299.8 1349.89,3268.3 1305.5,3242C 1295.66,3233.66 1285.99,3225.16 1276.5,3216.5C 1278.36,3214.81 1280.36,3213.31 1282.5,3212C 1291.5,3210.79 1300.5,3209.62 1309.5,3208.5C 1365.28,3211.59 1415.61,3229.42 1460.5,3262C 1488.77,3290.6 1515.94,3320.1 1542,3350.5C 1553.56,3362.73 1565.73,3374.23 1578.5,3385C 1609.38,3416.56 1642.04,3445.89 1676.5,3473C 1721.86,3503.68 1771.2,3525.68 1824.5,3539C 1859.52,3549.05 1895.18,3552.38 1931.5,3549C 1968.98,3547.59 2005.98,3542.59 2042.5,3534C 2060.13,3529.13 2076.8,3522.13 2092.5,3513C 2101.17,3504.44 2109.01,3495.28 2116,3485.5C 2138.15,3444.51 2161.82,3404.51 2187,3365.5C 2199.42,3351.75 2211.09,3337.41 2222,3322.5C 2230.33,3314.83 2238.67,3307.17 2247,3299.5C 2260.67,3281.78 2264.34,3262.12 2258,3240.5C 2247.65,3212.98 2227.82,3198.31 2198.5,3196.5C 2177.53,3198.91 2156.53,3201.08 2135.5,3203C 2107.94,3203.53 2080.6,3201.2 2053.5,3196C 1998.17,3183.78 1943.5,3169.11 1889.5,3152C 1800.09,3119.86 1722.26,3070.03 1656,3002.5C 1632.91,2976.08 1610.58,2949.08 1589,2921.5C 1559.83,2880.51 1535.83,2836.51 1517,2789.5C 1504.11,2760.05 1493.77,2729.71 1486,2698.5C 1474.08,2642.63 1465.08,2586.3 1459,2529.5C 1459.07,2487.2 1462.74,2445.2 1470,2403.5C 1468.95,2368.81 1474.28,2335.14 1486,2302.5C 1498.45,2271.81 1510.12,2240.81 1521,2209.5C 1528,2194.17 1535,2178.83 1542,2163.5C 1561.67,2134.83 1581.33,2106.17 1601,2077.5C 1613.62,2061.87 1626.62,2046.54 1640,2031.5C 1645.52,2021.92 1650.86,2012.26 1656,2002.5C 1663.48,1981.36 1661.14,1961.36 1649,1942.5C 1640.89,1906.96 1636.56,1870.96 1636,1834.5C 1633.88,1779.7 1635.88,1725.03 1642,1670.5C 1644.89,1653.48 1647.89,1636.48 1651,1619.5C 1654.74,1605.45 1658.57,1591.45 1662.5,1577.5 Z"/></g>
</svg>
