<?xml version="1.0" encoding="UTF-8"?>
<!DOCTYPE svg PUBLIC "-//W3C//DTD SVG 1.1//EN" "http://www.w3.org/Graphics/SVG/1.1/DTD/svg11.dtd">
<svg xmlns="http://www.w3.org/2000/svg" version="1.1" width="5000px" height="5000px" style="shape-rendering:geometricPrecision; text-rendering:geometricPrecision; image-rendering:optimizeQuality; fill-rule:evenodd; clip-rule:evenodd" xmlns:xlink="http://www.w3.org/1999/xlink">
<g><path style="opacity:0.997" fill="#65faf0" d="M 2462.5,733.5 C 2837.49,725.149 3183.16,820.649 3499.5,1020C 3839.81,1241.35 4082.65,1541.85 4228,1921.5C 4340.69,2230.04 4370.02,2546.37 4316,2870.5C 4255.27,3209.57 4112.61,3507.9 3888,3765.5C 3645.14,4038.78 3346.64,4224.61 2992.5,4323C 2674.83,4406.33 2357.17,4406.33 2039.5,4323C 1680.03,4222.95 1378.19,4033.12 1134,3753.5C 880.017,3456.56 734.351,3112.23 697,2720.5C 666.599,2352.47 738.932,2006.14 914,1681.5C 1082,1379.5 1315.83,1142.34 1615.5,970C 1878.46,822.186 2160.79,743.352 2462.5,733.5 Z M 2467.5,854.5 C 2879.62,847.153 3247.62,968.986 3571.5,1220C 3853.01,1444.99 4046.51,1730.49 4152,2076.5C 4239.25,2380.24 4243.92,2685.24 4166,2991.5C 4075.44,3326.63 3901.27,3609.13 3643.5,3839C 3341.85,4100.86 2990.19,4242.19 2588.5,4263C 2221.91,4275.87 1885.24,4182.87 1578.5,3984C 1287.95,3789.44 1074.78,3530.94 939,3208.5C 819.16,2912.77 783.493,2607.11 832,2291.5C 888.997,1948.87 1034.33,1650.87 1268,1397.5C 1524.85,1125.1 1838.35,953.271 2208.5,882C 2294.34,866.702 2380.67,857.535 2467.5,854.5 Z M 1764.5,1607.5 C 1798.88,1604.01 1831.54,1609.84 1862.5,1625C 1875.77,1630.63 1888.43,1637.3 1900.5,1645C 1905.38,1650.21 1909.88,1655.71 1914,1661.5C 1933.51,1695.85 1952.51,1730.51 1971,1765.5C 1979.68,1789.52 1980.68,1813.86 1974,1838.5C 1962.22,1880.06 1943.55,1918.06 1918,1952.5C 1888.56,1988.21 1850.56,2004.54 1804,2001.5C 1747.94,2003.7 1697.78,1987.87 1653.5,1954C 1632.46,1935.3 1615.62,1913.47 1603,1888.5C 1578.42,1823.48 1585.75,1762.48 1625,1705.5C 1633.57,1695.35 1641.91,1685.02 1650,1674.5C 1667.64,1656.18 1686.48,1639.35 1706.5,1624C 1714.38,1618.79 1722.71,1614.46 1731.5,1611C 1742.67,1609.99 1753.67,1608.82 1764.5,1607.5 Z M 3105.5,2247.5 C 3133.81,2245.22 3160.81,2250.05 3186.5,2262C 3222.05,2277.59 3255.05,2297.26 3285.5,2321C 3331.35,2369.83 3367.85,2425 3395,2486.5C 3408.69,2519.27 3418.03,2553.27 3423,2588.5C 3430.02,2643.06 3436.02,2697.72 3441,2752.5C 3446.3,2843.44 3448.8,2934.44 3448.5,3025.5C 3449.23,3042.85 3450.23,3060.18 3451.5,3077.5C 3450.68,3093.99 3450.02,3110.49 3449.5,3127C 3451.55,3162.14 3453.05,3197.31 3454,3232.5C 3457.05,3269.42 3458.38,3306.42 3458,3343.5C 3460.18,3381.84 3462.51,3420.18 3465,3458.5C 3465.83,3465.52 3465.66,3472.52 3464.5,3479.5C 3452.76,3480.45 3440.93,3480.45 3429,3479.5C 3392.72,3482.83 3356.39,3483.83 3320,3482.5C 3273.68,3483.86 3227.34,3484.86 3181,3485.5C 3166.59,3485.5 3152.26,3485.16 3138,3484.5C 3136.15,3471.88 3135.49,3459.22 3136,3446.5C 3138.45,3427.14 3141.12,3407.81 3144,3388.5C 3144.88,3380.52 3145.38,3372.52 3145.5,3364.5C 3144.47,3327.48 3142.97,3290.48 3141,3253.5C 3140.29,3218.16 3140.45,3182.83 3141.5,3147.5C 3140.72,3123.49 3139.72,3099.49 3138.5,3075.5C 3142.64,2999.12 3141.81,2922.79 3136,2846.5C 3129.67,2778.85 3111.67,2714.52 3082,2653.5C 3069.83,2633.82 3057.16,2614.49 3044,2595.5C 3033.72,2582.55 3021.55,2571.72 3007.5,2563C 2986.23,2551.53 2964.57,2540.87 2942.5,2531C 2898.62,2517.4 2854.62,2516.74 2810.5,2529C 2792.19,2534.88 2774.19,2541.55 2756.5,2549C 2742.28,2556.27 2729.28,2565.27 2717.5,2576C 2701.27,2591.56 2685.77,2607.73 2671,2624.5C 2655.01,2650.1 2642.68,2677.43 2634,2706.5C 2632.56,2714.15 2631.23,2721.81 2630,2729.5C 2629.83,2758.79 2630,2787.95 2630.5,2817C 2628.82,2865.52 2626.65,2914.02 2624,2962.5C 2624.05,3000.2 2623.05,3037.87 2621,3075.5C 2619,3167.51 2619.17,3259.51 2621.5,3351.5C 2620.18,3376.18 2618.68,3400.84 2617,3425.5C 2616.5,3442.16 2616.33,3458.83 2616.5,3475.5C 2606.17,3474.7 2595.84,3474.53 2585.5,3475C 2560.23,3477.86 2534.89,3480.03 2509.5,3481.5C 2489.52,3480.1 2469.52,3479.6 2449.5,3480C 2427.47,3481.71 2405.47,3483.71 2383.5,3486C 2365.5,3486.5 2347.5,3486.67 2329.5,3486.5C 2329.9,3089.83 2330.23,2693.17 2330.5,2296.5C 2358.84,2297.42 2387.17,2296.92 2415.5,2295C 2465.52,2294.81 2515.52,2294.31 2565.5,2293.5C 2565.33,2319.49 2565.83,2345.49 2567,2371.5C 2570.88,2407.05 2590.38,2428.22 2625.5,2435C 2642.35,2440.19 2658.68,2438.85 2674.5,2431C 2698.94,2411.89 2723.94,2393.56 2749.5,2376C 2782.2,2345.3 2819.53,2321.63 2861.5,2305C 2940.25,2274.29 3021.59,2255.12 3105.5,2247.5 Z M 1974.5,2302.5 C 1979.83,2302.5 1985.17,2302.5 1990.5,2302.5C 1990.88,2350.18 1991.88,2397.85 1993.5,2445.5C 1992.38,2486.82 1991.55,2528.16 1991,2569.5C 1987.83,2626.15 1985,2682.82 1982.5,2739.5C 1985.08,2790.13 1986.41,2840.8 1986.5,2891.5C 1984.34,3090.51 1982.34,3289.51 1980.5,3488.5C 1949.02,3490.45 1917.52,3492.12 1886,3493.5C 1859,3492.21 1832,3490.88 1805,3489.5C 1743.8,3489.78 1682.63,3491.11 1621.5,3493.5C 1619.54,3487.99 1618.04,3482.32 1617,3476.5C 1615.71,3461.52 1614.71,3446.52 1614,3431.5C 1610.19,3341.51 1609.85,3251.51 1613,3161.5C 1613.67,3073.17 1613.67,2984.83 1613,2896.5C 1610.92,2831.83 1608.76,2767.17 1606.5,2702.5C 1608.92,2651.81 1611.75,2601.14 1615,2550.5C 1614.76,2496.79 1616.1,2443.12 1619,2389.5C 1621.25,2361.81 1623.75,2334.14 1626.5,2306.5C 1694.83,2306.67 1763.17,2306.5 1831.5,2306C 1879.33,2305.09 1927,2303.93 1974.5,2302.5 Z"/></g>
<g><path style="opacity:0.997" fill="#65faf0" d="M 1760.5,1486.5 C 1818.31,1482.49 1872.97,1493.66 1924.5,1520C 1963.76,1535.86 1994.59,1561.7 2017,1597.5C 2040.87,1637.91 2063.21,1679.24 2084,1721.5C 2103.47,1775.48 2104.47,1829.82 2087,1884.5C 2069.02,1942.49 2040.68,1994.49 2002,2040.5C 1955.16,2092.33 1896.66,2119.5 1826.5,2122C 1745.59,2128.42 1670.92,2110.09 1602.5,2067C 1491.3,1986.82 1449.13,1878.98 1476,1743.5C 1488.36,1694.78 1510.69,1651.45 1543,1613.5C 1563.17,1592.67 1583.33,1571.83 1603.5,1551C 1625.65,1531.53 1649.99,1515.2 1676.5,1502C 1689.31,1496.46 1702.64,1492.8 1716.5,1491C 1731.31,1489.38 1745.97,1487.88 1760.5,1486.5 Z M 1764.5,1607.5 C 1753.67,1608.82 1742.67,1609.99 1731.5,1611C 1722.71,1614.46 1714.38,1618.79 1706.5,1624C 1686.48,1639.35 1667.64,1656.18 1650,1674.5C 1641.91,1685.02 1633.57,1695.35 1625,1705.5C 1585.75,1762.48 1578.42,1823.48 1603,1888.5C 1615.62,1913.47 1632.46,1935.3 1653.5,1954C 1697.78,1987.87 1747.94,2003.7 1804,2001.5C 1850.56,2004.54 1888.56,1988.21 1918,1952.5C 1943.55,1918.06 1962.22,1880.06 1974,1838.5C 1980.68,1813.86 1979.68,1789.52 1971,1765.5C 1952.51,1730.51 1933.51,1695.85 1914,1661.5C 1909.88,1655.71 1905.38,1650.21 1900.5,1645C 1888.43,1637.3 1875.77,1630.63 1862.5,1625C 1831.54,1609.84 1798.88,1604.01 1764.5,1607.5 Z"/></g>
<g><path style="opacity:0.997" fill="#65faf0" d="M 3098.5,2126.5 C 3139.8,2123.7 3179.8,2129.53 3218.5,2144C 3270.88,2164.51 3318.88,2192.18 3362.5,2227C 3380.82,2242.65 3396.98,2260.15 3411,2279.5C 3442.62,2320.49 3470.28,2364.16 3494,2410.5C 3521.87,2468.11 3539.2,2528.77 3546,2592.5C 3553.32,2650.01 3558.98,2707.68 3563,2765.5C 3565.76,2828.15 3568.09,2890.82 3570,2953.5C 3569.03,3012.19 3570.2,3070.85 3573.5,3129.5C 3572.2,3173.93 3573.7,3218.26 3578,3262.5C 3578.33,3288.5 3578.67,3314.5 3579,3340.5C 3582.81,3398.14 3585.98,3455.81 3588.5,3513.5C 3587.19,3524.86 3585.69,3536.2 3584,3547.5C 3577.4,3573.1 3561.23,3588.94 3535.5,3595C 3474.67,3598.38 3413.84,3601.54 3353,3604.5C 3340.51,3603.89 3328.01,3603.56 3315.5,3603.5C 3269.01,3604.93 3222.51,3605.93 3176,3606.5C 3146.8,3606.69 3117.64,3605.86 3088.5,3604C 3065.17,3604.01 3045.67,3595.51 3030,3578.5C 3023.21,3568.91 3019.21,3558.25 3018,3546.5C 3018.21,3516.31 3017.05,3486.14 3014.5,3456C 3014.61,3447.14 3015.11,3438.31 3016,3429.5C 3019.44,3406.23 3022.28,3382.9 3024.5,3359.5C 3023.39,3324.15 3021.89,3288.82 3020,3253.5C 3019.28,3216.66 3019.44,3179.83 3020.5,3143C 3019.26,3120.18 3018.26,3097.34 3017.5,3074.5C 3018.71,3047.66 3020.04,3020.83 3021.5,2994C 3019.73,2954.51 3018.23,2915.01 3017,2875.5C 3013.61,2815.67 2998.61,2759 2972,2705.5C 2963.42,2693.34 2955.09,2681.01 2947,2668.5C 2931.86,2660.01 2916.36,2652.18 2900.5,2645C 2881.08,2640.08 2861.75,2640.41 2842.5,2646C 2830.68,2649.94 2819.01,2654.27 2807.5,2659C 2793.37,2670.8 2780.2,2683.63 2768,2697.5C 2763.48,2705.92 2760.82,2714.92 2760,2724.5C 2758.55,2739.19 2756.88,2753.86 2755,2768.5C 2754.42,2775.84 2754.58,2783.18 2755.5,2790.5C 2752.93,2847.9 2749.43,2905.23 2745,2962.5C 2742.4,3045.31 2740.9,3128.14 2740.5,3211C 2741.17,3257.17 2741.84,3303.33 2742.5,3349.5C 2740.5,3386.32 2738.83,3423.15 2737.5,3460C 2737.46,3482.05 2738.46,3504.05 2740.5,3526C 2739.46,3557.38 2723.79,3577.38 2693.5,3586C 2689.15,3586.57 2684.82,3587.24 2680.5,3588C 2671.76,3592.68 2662.43,3595.18 2652.5,3595.5C 2634.9,3596.43 2617.23,3596.43 2599.5,3595.5C 2570.88,3598.36 2542.21,3600.7 2513.5,3602.5C 2498.34,3601.74 2483.17,3601.08 2468,3600.5C 2440.78,3602.01 2413.62,3604.17 2386.5,3607C 2345.78,3608.14 2305.11,3607.14 2264.5,3604C 2239.13,3599.96 2222.29,3585.79 2214,3561.5C 2212.33,3554.5 2210.67,3547.5 2209,3540.5C 2208.79,3110.33 2209.13,2679.99 2210,2249.5C 2212.54,2239.99 2214.2,2230.33 2215,2220.5C 2221.81,2194.02 2238.65,2178.19 2265.5,2173C 2292.81,2174.18 2320.15,2175.35 2347.5,2176.5C 2416.47,2174.01 2485.47,2172.85 2554.5,2173C 2581.99,2168.01 2609.32,2168.67 2636.5,2175C 2662.99,2185.83 2678.83,2205.33 2684,2233.5C 2685.76,2245.77 2686.76,2258.1 2687,2270.5C 2718.34,2242.88 2753.17,2220.38 2791.5,2203C 2889.84,2161 2992.17,2135.5 3098.5,2126.5 Z M 3105.5,2247.5 C 3021.59,2255.12 2940.25,2274.29 2861.5,2305C 2819.53,2321.63 2782.2,2345.3 2749.5,2376C 2723.94,2393.56 2698.94,2411.89 2674.5,2431C 2658.68,2438.85 2642.35,2440.19 2625.5,2435C 2590.38,2428.22 2570.88,2407.05 2567,2371.5C 2565.83,2345.49 2565.33,2319.49 2565.5,2293.5C 2515.52,2294.31 2465.52,2294.81 2415.5,2295C 2387.17,2296.92 2358.84,2297.42 2330.5,2296.5C 2330.23,2693.17 2329.9,3089.83 2329.5,3486.5C 2347.5,3486.67 2365.5,3486.5 2383.5,3486C 2405.47,3483.71 2427.47,3481.71 2449.5,3480C 2469.52,3479.6 2489.52,3480.1 2509.5,3481.5C 2534.89,3480.03 2560.23,3477.86 2585.5,3475C 2595.84,3474.53 2606.17,3474.7 2616.5,3475.5C 2616.33,3458.83 2616.5,3442.16 2617,3425.5C 2618.68,3400.84 2620.18,3376.18 2621.5,3351.5C 2619.17,3259.51 2619,3167.51 2621,3075.5C 2623.05,3037.87 2624.05,3000.2 2624,2962.5C 2626.65,2914.02 2628.82,2865.52 2630.5,2817C 2630,2787.95 2629.83,2758.79 2630,2729.5C 2631.23,2721.81 2632.56,2714.15 2634,2706.5C 2642.68,2677.43 2655.01,2650.1 2671,2624.5C 2685.77,2607.73 2701.27,2591.56 2717.5,2576C 2729.28,2565.27 2742.28,2556.27 2756.5,2549C 2774.19,2541.55 2792.19,2534.88 2810.5,2529C 2854.62,2516.74 2898.62,2517.4 2942.5,2531C 2964.57,2540.87 2986.23,2551.53 3007.5,2563C 3021.55,2571.72 3033.72,2582.55 3044,2595.5C 3057.16,2614.49 3069.83,2633.82 3082,2653.5C 3111.67,2714.52 3129.67,2778.85 3136,2846.5C 3141.81,2922.79 3142.64,2999.12 3138.5,3075.5C 3139.72,3099.49 3140.72,3123.49 3141.5,3147.5C 3140.45,3182.83 3140.29,3218.16 3141,3253.5C 3142.97,3290.48 3144.47,3327.48 3145.5,3364.5C 3145.38,3372.52 3144.88,3380.52 3144,3388.5C 3141.12,3407.81 3138.45,3427.14 3136,3446.5C 3135.49,3459.22 3136.15,3471.88 3138,3484.5C 3152.26,3485.16 3166.59,3485.5 3181,3485.5C 3227.34,3484.86 3273.68,3483.86 3320,3482.5C 3356.39,3483.83 3392.72,3482.83 3429,3479.5C 3440.93,3480.45 3452.76,3480.45 3464.5,3479.5C 3465.66,3472.52 3465.83,3465.52 3465,3458.5C 3462.51,3420.18 3460.18,3381.84 3458,3343.5C 3458.38,3306.42 3457.05,3269.42 3454,3232.5C 3453.05,3197.31 3451.55,3162.14 3449.5,3127C 3450.02,3110.49 3450.68,3093.99 3451.5,3077.5C 3450.23,3060.18 3449.23,3042.85 3448.5,3025.5C 3448.8,2934.44 3446.3,2843.44 3441,2752.5C 3436.02,2697.72 3430.02,2643.06 3423,2588.5C 3418.03,2553.27 3408.69,2519.27 3395,2486.5C 3367.85,2425 3331.35,2369.83 3285.5,2321C 3255.05,2297.26 3222.05,2277.59 3186.5,2262C 3160.81,2250.05 3133.81,2245.22 3105.5,2247.5 Z"/></g>
<g><path style="opacity:0.996" fill="#65faf0" d="M 1995.5,2180.5 C 2010.88,2180.08 2026.22,2180.58 2041.5,2182C 2062.23,2184.6 2078.4,2194.44 2090,2211.5C 2094.91,2222.79 2099.58,2234.12 2104,2245.5C 2107.64,2258.22 2109.64,2271.22 2110,2284.5C 2113.64,2380.81 2114.31,2477.14 2112,2573.5C 2108.7,2627.47 2105.87,2681.47 2103.5,2735.5C 2106.05,2786.47 2107.39,2837.47 2107.5,2888.5C 2105.02,3087.16 2103.19,3285.83 2102,3484.5C 2101.62,3492.38 2100.79,3500.22 2099.5,3508C 2113.3,3532.37 2112.46,3556.2 2097,3579.5C 2084.18,3594.99 2067.68,3603.16 2047.5,3604C 1994.27,3609.04 1940.93,3612.54 1887.5,3614.5C 1860.47,3613.79 1833.47,3612.45 1806.5,3610.5C 1777.99,3611.78 1749.49,3611.78 1721,3610.5C 1682.86,3612.36 1644.69,3613.7 1606.5,3614.5C 1588.49,3614.42 1570.49,3613.92 1552.5,3613C 1523.35,3608.18 1505.51,3591.35 1499,3562.5C 1497.09,3549.58 1498.93,3537.25 1504.5,3525.5C 1499.81,3511.88 1496.98,3497.88 1496,3483.5C 1493.09,3445.89 1491.42,3408.22 1491,3370.5C 1492.19,3212.51 1492.52,3054.51 1492,2896.5C 1489.82,2833.67 1487.65,2770.84 1485.5,2708C 1487.48,2654.46 1490.32,2600.96 1494,2547.5C 1493.63,2487.11 1495.3,2426.78 1499,2366.5C 1501.13,2346 1503.29,2325.5 1505.5,2305C 1503.62,2282.67 1504.78,2260.5 1509,2238.5C 1517,2215.17 1532.83,2200 1556.5,2193C 1575.6,2188.84 1594.93,2186.51 1614.5,2186C 1685.5,2185.67 1756.5,2185.33 1827.5,2185C 1883.68,2184.23 1939.68,2182.73 1995.5,2180.5 Z M 1974.5,2302.5 C 1927,2303.93 1879.33,2305.09 1831.5,2306C 1763.17,2306.5 1694.83,2306.67 1626.5,2306.5C 1623.75,2334.14 1621.25,2361.81 1619,2389.5C 1616.1,2443.12 1614.76,2496.79 1615,2550.5C 1611.75,2601.14 1608.92,2651.81 1606.5,2702.5C 1608.76,2767.17 1610.92,2831.83 1613,2896.5C 1613.67,2984.83 1613.67,3073.17 1613,3161.5C 1609.85,3251.51 1610.19,3341.51 1614,3431.5C 1614.71,3446.52 1615.71,3461.52 1617,3476.5C 1618.04,3482.32 1619.54,3487.99 1621.5,3493.5C 1682.63,3491.11 1743.8,3489.78 1805,3489.5C 1832,3490.88 1859,3492.21 1886,3493.5C 1917.52,3492.12 1949.02,3490.45 1980.5,3488.5C 1982.34,3289.51 1984.34,3090.51 1986.5,2891.5C 1986.41,2840.8 1985.08,2790.13 1982.5,2739.5C 1985,2682.82 1987.83,2626.15 1991,2569.5C 1991.55,2528.16 1992.38,2486.82 1993.5,2445.5C 1991.88,2397.85 1990.88,2350.18 1990.5,2302.5C 1985.17,2302.5 1979.83,2302.5 1974.5,2302.5 Z"/></g>
</svg>
